
<svg version="1.1" id="Layer_1" xmlns="http://www.w3.org/2000/svg" xmlns:xlink="http://www.w3.org/1999/xlink" x="0px" y="0px"
	 viewBox="0 0 613 274" style="enable-background:new 0 0 613 274;" xml:space="preserve">
<g>
		<path fill="white" d="M64.25,56.78h46c20.61,0,35.89,3.15,45.83,9.44C166.03,72.51,171,82.52,171,96.26c0,2.03-0.13,4.03-0.38,6.02
			c-0.25,1.99-0.91,4.54-1.95,7.65c-1.05,3.11-2.48,5.95-4.29,8.52c-1.81,2.57-4.47,5.14-7.97,7.7c-3.51,2.57-7.61,4.61-12.31,6.13
			c10.78,2.03,18.95,6.58,24.52,13.67c5.57,7.09,8.35,15.62,8.35,25.6c0,14.54-4.76,25.78-14.27,33.74
			c-9.51,7.96-23.67,11.93-42.47,11.93H64.25V56.78z M83.02,125.77h34.39c11.21,0,19.67-1.95,25.39-5.86
			c5.71-3.91,8.57-10.85,8.57-20.83c0-10.05-3.42-16.98-10.25-20.77s-17.45-5.7-31.84-5.7H83.02V125.77z M83.02,140.85v60.97h33.52
			c13.6,0,23.79-2.51,30.59-7.54c6.8-5.03,10.2-12.86,10.2-23.49c0-11.07-3.67-18.82-11.01-23.27c-7.34-4.45-18.79-6.67-34.34-6.67
			H83.02z"/>
		<path fill="white" d="M203.77,217.22V56.78h18.88v143.74h70.62l-0.65,16.71H203.77z"/>
		<path fill="white" d="M432.34,217.22h-23l-61.4-76.59l-14.65,12.91v63.68h-18.88V56.78h18.88v78.76l70.51-78.76h23.54l-65.09,72.25
			L432.34,217.22z"/>
		<path fill="white" d="M499.39,217.22h-18.88V73.37h-49.36v-16.6h117.6v16.6h-49.36V217.22z"/>

		<path fill="white" d="M596,17v240H17V17H596 M613,0h-17H17H0v17v240v17h17h579h17v-17V17V0L613,0z"/>

</g>
</svg>
