<svg id="Layer_2" data-name="Layer 2" xmlns="http://www.w3.org/2000/svg" viewBox="0 0 402.35 582.1">
    <defs>
        <style>
            .cls-1{
                fill:none;
                stroke:  #323234;
                stroke-miterlimit:10;
                stroke-width:4px;
                }
        </style>
    </defs>

    <path class="cls-1" d="M1262,449c-184,159,34,299-124,396-48.5,29.78-183.06,28.06-236.5-13.5-78.38-61-13.5-107.88-10.12-103.6.14.18,0,.66.12.6C931,699,1069,725,1043,792c-3.06,7.9-11.16,16.7-18,20-37.64,18.16-98.89-25.11-126-72-5.65-9.77-16.17-28.45-17-54-.67-20.51,5.22-36,14-59,3.69-9.69,11.46-25.13,27-56,16.73-33.25,17.93-33.91,22-45,4.79-13,6.46-21.21,14-35s14-20.51,20-25c8.06-6.07,20.65-12.38,24-9,1.86,1.88.52,6.39-1,9-2.15,3.7-6,5.85-15,8-8.43,2-15.46,3.69-26,3-5.92-.39-21.42-1.6-36-12-5.3-3.78-12.48-8.91-12-15,.4-5,15.7-16.32,20-24,8-11-19-11,28-64,8.51-9.59-19.46-24.43-21-45-.45-6,1.22-7.51,2-8,3.08-1.94,8.7,2.08,13,5,31.53,21.39,49.51,22,53,22a18.08,18.08,0,0,0,7-1c7.26-2.75,8.71-9.53,16-22,9.92-17,20-21.33,22-22,4.66-1.53,5.62-5.47,7-3,1,1.83,7.64,16.89,6,13a62,62,0,0,1,3,10c3.44,20.74-1.22,21.77,3,37,1.25,4.51,1.79,5,12,26,23.92,49.26,24,51.91,36,71,4.42,7.05,4.17,6.19,9,14a438.94,438.94,0,0,1,25,46c4.84,10.85,7.76,24.59-5,113-6.15,42.58-9.22,63.88-12,72-10,29.09-23.7,48.75-31,89-1.68,9.24-2.54,16.93-3,22" transform="translate(-860.96 -285.2)"/>

</svg>